<svg width="22" height="22" viewBox="0 0 22 22" fill="none" xmlns="http://www.w3.org/2000/svg">
<path d="M16.6033 20.3493C16.2266 20.6035 15.8315 20.8345 15.4133 21.0263C14.9973 21.2343 14.5652 21.3891 14.1193 21.53C13.222 21.8033 12.293 21.9587 11.3557 21.9922C10.4129 22.0268 9.46555 21.946 8.53665 21.7611C8.07094 21.6657 7.6105 21.5461 7.15717 21.403C6.93073 21.3336 6.70659 21.2458 6.48014 21.158L6.14278 21.0194C6.02725 20.9685 5.92558 20.927 5.78463 20.8507L5.15381 20.5272L5.43571 19.5452C5.45882 19.4666 5.4773 19.3788 5.4981 19.2956C5.53507 19.1246 5.57435 18.9536 5.60208 18.7757C5.66564 18.4201 5.71728 18.0626 5.7569 17.7035C5.83315 16.978 5.87243 16.2432 5.88399 15.5015L5.8863 14.9469L5.87474 14.3877C5.87474 14.0134 5.8447 13.6414 5.82853 13.267C5.81466 12.8927 5.76845 12.5184 5.74997 12.1417L5.60439 10.6121L5.84701 10.4411C5.90264 10.4016 5.9605 10.3653 6.02032 10.3325C6.07346 10.3024 6.1243 10.2747 6.17744 10.2493C6.28142 10.1984 6.3854 10.1499 6.4917 10.1106C6.70238 10.031 6.91863 9.96688 7.13869 9.91885C7.57772 9.82642 8.02368 9.80332 8.45578 9.86108C8.88788 9.91423 9.30149 10.039 9.67582 10.2192C10.0548 10.3949 10.3968 10.6282 10.6995 10.8893C10.3315 10.7488 9.95076 10.6443 9.5626 10.5774C9.18364 10.5127 8.807 10.5081 8.44422 10.5474C8.08145 10.5866 7.73484 10.686 7.41366 10.82C7.25191 10.8893 7.0971 10.9702 6.95152 11.0603C6.88019 11.1054 6.81008 11.1524 6.74125 11.2013C6.7089 11.2244 6.67655 11.2475 6.64882 11.2752C6.62109 11.2983 6.5795 11.3307 6.5795 11.3399L6.78284 10.7715C6.88971 11.1519 6.99062 11.534 7.08554 11.9176C7.17104 12.3035 7.25653 12.6917 7.32354 13.0845C7.45756 13.8701 7.55461 14.6627 7.59389 15.4645C7.62855 16.2663 7.62624 17.075 7.54768 17.8838C7.50609 18.2882 7.45987 18.6925 7.37669 19.1015C7.33972 19.3049 7.2935 19.5082 7.24267 19.7138C7.21494 19.8178 7.19183 19.9218 7.15948 20.0258C7.12713 20.1367 7.10172 20.2245 7.04857 20.3724L6.63958 19.2794C6.71964 19.3248 6.80134 19.3672 6.88451 19.4065C6.97694 19.4527 7.06937 19.4943 7.16179 19.5359C7.35048 19.62 7.54157 19.6986 7.73484 19.7716C8.12073 19.9264 8.52048 20.0581 8.92254 20.176C9.73128 20.4163 10.5585 20.578 11.4019 20.6843C12.2549 20.78 13.1146 20.8017 13.9714 20.749C14.8494 20.6936 15.7229 20.5526 16.6102 20.3516L16.6033 20.3493Z" fill="white"/>
<path d="M16.6035 20.3492C15.9958 19.9148 15.603 19.3163 15.3096 18.6994C15.0207 18.0755 14.8428 17.4123 14.7689 16.7353C14.6949 16.0582 14.7226 15.372 14.8775 14.7019C15.0392 14.0318 15.298 13.3686 15.8017 12.8164C16.042 13.5188 16.1714 14.1334 16.2962 14.7435L16.5643 16.5458L16.6798 18.3643C16.689 18.9882 16.6867 19.6167 16.6012 20.3515L16.6035 20.3492ZM6.22856 12.3126C5.98131 12.6315 5.61391 12.8995 5.18413 13.0174C4.75665 13.1468 4.28989 13.1422 3.84855 13.052C2.96125 12.8603 2.15713 12.3357 1.57484 11.6194C1.27907 11.2636 1.03876 10.8569 0.858523 10.4179C0.685222 9.97883 0.581241 9.50745 0.54427 9.03145C0.514675 8.55238 0.553578 8.07153 0.659804 7.60345C0.775338 7.13438 0.94864 6.67917 1.19126 6.27018C1.67188 5.44527 2.38127 4.75668 3.23622 4.31996C3.66139 4.09583 4.12583 3.94563 4.60414 3.86707C5.08246 3.79313 5.57463 3.79313 6.03677 3.88093C6.97029 4.04268 7.80213 4.50482 8.42833 5.13332C9.05221 5.75721 9.47738 6.57288 9.54208 7.39779C9.07532 6.71845 8.49534 6.21935 7.85528 5.87274C7.22215 5.52614 6.52895 5.35284 5.87733 5.34822C5.22341 5.34128 4.62032 5.52614 4.075 5.84964C3.80234 6.01138 3.55278 6.21241 3.32402 6.43655C3.09898 6.66336 2.89981 6.91445 2.73018 7.18521C2.05084 8.25506 1.97689 9.68075 2.6493 10.8546C2.97973 11.4392 3.47653 11.9637 4.0981 12.2872C4.71737 12.6107 5.49376 12.7031 6.22394 12.3149L6.22856 12.3126Z" fill="white"/>
<path d="M6.85738 5.08256C6.7455 4.73827 6.6962 4.37671 6.7118 4.01503C6.73029 3.64532 6.81116 3.27561 6.93594 2.91976C7.0711 2.56181 7.25124 2.2225 7.47202 1.90999C7.69615 1.59574 7.9665 1.30922 8.26689 1.05504C8.57688 0.801307 8.91772 0.5878 9.28129 0.419602C9.65562 0.250922 10.0438 0.142319 10.4366 0.0683774C10.8341 -0.000943138 11.2361 -0.0101859 11.6336 0.0082996C12.031 0.0360278 12.4192 0.10997 12.8028 0.21164C13.1788 0.325082 13.5444 0.470413 13.8957 0.646049C14.2423 0.830904 14.5704 1.04349 14.8755 1.28842C15.4855 1.78522 15.9777 2.39062 16.3381 3.05378C17.0544 4.37781 17.2809 5.89593 16.9782 7.26847C16.5207 5.94676 15.9453 4.77293 15.1527 3.84404C14.9574 3.61728 14.7499 3.4013 14.5312 3.19705C14.307 3.00295 14.0875 2.82271 13.8472 2.66559C13.3666 2.35133 12.8444 2.10409 12.299 1.94928C11.756 1.79215 11.1968 1.72976 10.6469 1.76442C10.3742 1.78753 10.0993 1.83374 9.83816 1.90306C9.57936 1.98394 9.31594 2.08792 9.06408 2.21731C8.80912 2.35854 8.56642 2.52085 8.33852 2.70256C8.11439 2.89435 7.89487 3.10462 7.70078 3.34262C7.50499 3.58908 7.33322 3.85371 7.1878 4.13287C7.04703 4.43865 6.93412 4.7565 6.85044 5.08256H6.85738Z" fill="white"/>
<path d="M16.2938 4.40776C16.8831 3.99646 17.7149 3.84626 18.4959 4.05654C19.2815 4.25525 19.9817 4.77285 20.4669 5.43139C20.9522 6.08994 21.2595 6.86864 21.3843 7.65889C21.5137 8.45146 21.4813 9.24171 21.3381 10.0112C21.1717 10.88 20.7373 11.6425 20.1688 12.2479C19.8916 12.5437 19.5311 12.8348 19.1614 13.0405C18.7824 13.2438 18.385 13.394 17.9783 13.4703C17.1696 13.6366 16.3192 13.5442 15.6052 13.2392C14.8889 12.9388 14.2789 12.4605 13.8653 11.8643C14.5354 12.1416 15.1916 12.3103 15.8294 12.3496C16.4625 12.3889 17.054 12.2895 17.5855 12.0723C17.8466 11.9614 18.0939 11.8251 18.3018 11.6633C18.5213 11.5016 18.69 11.3283 18.8702 11.0995C19.2215 10.6605 19.471 10.1614 19.5773 9.66226C19.8199 8.46763 19.7991 7.21986 19.3 6.17312C19.0551 5.6486 18.6831 5.17953 18.1747 4.85141C17.6664 4.51636 17.0194 4.35924 16.2961 4.41238L16.2938 4.40776ZM7.04184 17.1212C7.18048 17.2298 7.37458 17.3522 7.55019 17.4678L8.114 17.7959C8.50197 18.0062 8.90073 18.1959 9.30863 18.3643C9.72207 18.5353 10.1457 18.6803 10.5772 18.7987C11.0116 18.9258 11.4599 18.9974 11.9174 19.0598C11.4668 19.1476 11.0024 19.2262 10.531 19.2447C10.0619 19.2747 9.5836 19.2747 9.1076 19.2424C8.62738 19.213 8.14913 19.1575 7.67497 19.076L6.95866 18.9327L6.21924 18.7317L7.03722 17.1188L7.04184 17.1212Z" fill="white"/>
</svg>
