<svg width="40" height="40" viewBox="0 0 40 40" fill="none" xmlns="http://www.w3.org/2000/svg">
<rect width="40" height="40" rx="20" fill="#E8761C" fill-opacity="0.1"/>
<path d="M26.2652 14.2652C26.4116 14.1187 26.4116 13.8813 26.2652 13.7348C26.1187 13.5884 25.8813 13.5884 25.7348 13.7348M26.2652 14.2652L25.7348 13.7348M26.2652 14.2652L14.2652 26.2652M26.2652 14.2652L26 14M26.2652 14.2652L14.2652 26.2652M26.2652 14.2652L26 14M25.7348 13.7348L13.7348 25.7348M25.7348 13.7348L26 14M25.7348 13.7348L26 14M25.7348 13.7348L13.7348 25.7348M13.7348 25.7348C13.5884 25.8813 13.5884 26.1187 13.7348 26.2652C13.8813 26.4116 14.1187 26.4116 14.2652 26.2652M13.7348 25.7348L14.2652 26.2652M13.7348 25.7348L14 26M13.7348 25.7348L14 26M14.2652 26.2652L14 26M14.2652 26.2652L14 26M14.2652 13.7348C14.1187 13.5884 13.8813 13.5884 13.7348 13.7348C13.5884 13.8813 13.5884 14.1187 13.7348 14.2652M14.2652 13.7348L13.7348 14.2652M14.2652 13.7348L26.2652 25.7348M14.2652 13.7348L14 14M14.2652 13.7348L26.2652 25.7348M14.2652 13.7348L14 14M13.7348 14.2652L25.7348 26.2652M13.7348 14.2652L14 14M13.7348 14.2652L14 14M13.7348 14.2652L25.7348 26.2652M25.7348 26.2652C25.8813 26.4116 26.1187 26.4116 26.2652 26.2652C26.4116 26.1187 26.4116 25.8813 26.2652 25.7348M25.7348 26.2652L26.2652 25.7348M25.7348 26.2652L26 26M25.7348 26.2652L26 26M26.2652 25.7348L26 26M26.2652 25.7348L26 26" fill="#E8761C" stroke="#E8761C" stroke-width="0.75" stroke-linecap="round" stroke-linejoin="round"/>
</svg>
