<svg width="32" height="32" viewBox="0 0 32 32" fill="none" xmlns="http://www.w3.org/2000/svg">
<path d="M24.1518 29.5989C23.6039 29.9686 23.0291 30.3047 22.4207 30.5837C21.8156 30.8862 21.187 31.1114 20.5382 31.3164C19.233 31.7139 17.8815 31.9399 16.5179 31.9886C15.1464 32.039 13.7682 31.9214 12.4169 31.6525C11.7394 31.5137 11.0695 31.3398 10.4101 31.1315C10.0806 31.0307 9.75458 30.903 9.42515 30.7753L8.93437 30.5736C8.7663 30.4997 8.61839 30.4392 8.41334 30.3283L7.49566 29.8577L7.90576 28.4293C7.93937 28.315 7.96626 28.1873 7.99652 28.0663C8.0503 27.8176 8.10745 27.5689 8.14778 27.3101C8.24025 26.7929 8.31537 26.2728 8.373 25.7506C8.48393 24.6952 8.54108 23.6264 8.55789 22.5475L8.56125 21.7409L8.54444 20.9275C8.54444 20.383 8.50074 19.8419 8.47721 19.2974C8.45704 18.753 8.38981 18.2085 8.36292 17.6606L8.15115 15.4357L8.5041 15.1869C8.58502 15.1295 8.6692 15.0767 8.75621 15.029C8.83353 14.9853 8.90748 14.9449 8.9848 14.908C9.13606 14.834 9.28733 14.7635 9.44196 14.7063C9.74845 14.5904 10.063 14.4972 10.3832 14.4273C11.0219 14.2929 11.6706 14.2593 12.2992 14.3433C12.9278 14.4206 13.5295 14.6021 14.0741 14.8643C14.6254 15.1197 15.1229 15.4592 15.5632 15.839C15.0279 15.6345 14.4741 15.4826 13.9094 15.3852C13.3581 15.2911 12.8102 15.2844 12.2824 15.3415C11.7547 15.3987 11.2504 15.5432 10.7832 15.7381C10.5479 15.839 10.3227 15.9566 10.1109 16.0877C10.0071 16.1533 9.90513 16.2217 9.805 16.2927C9.75794 16.3263 9.71088 16.3599 9.67054 16.4003C9.6302 16.4339 9.56969 16.4809 9.56969 16.4944L9.8655 15.6676C10.021 16.2209 10.1678 16.7767 10.3059 17.3346C10.4302 17.8959 10.5546 18.4606 10.6521 19.0319C10.8471 20.1747 10.9882 21.3275 11.0454 22.4938C11.0958 23.66 11.0924 24.8364 10.9782 26.0127C10.9177 26.6009 10.8504 27.1891 10.7294 27.784C10.6756 28.0798 10.6084 28.3755 10.5344 28.6746C10.4941 28.8259 10.4605 28.9771 10.4134 29.1284C10.3664 29.2897 10.3294 29.4174 10.2521 29.6325L9.65709 28.0428C9.77356 28.1087 9.89242 28.1704 10.0134 28.2276C10.1479 28.2949 10.2823 28.3554 10.4168 28.4158C10.6913 28.5382 10.9693 28.6525 11.2504 28.7587C11.8118 28.9839 12.3933 29.1754 12.9782 29.3468C14.1548 29.6964 15.3582 29.9317 16.5851 30.0863C17.8261 30.2255 19.0767 30.257 20.3231 30.1804C21.6005 30.0997 22.8711 29.8947 24.1619 29.6023L24.1518 29.5989Z" fill="#2F86DE"/>
<path d="M24.1518 29.5989C23.2678 28.9671 22.6963 28.0966 22.2694 27.1992C21.8492 26.2917 21.5904 25.3271 21.4828 24.3423C21.3752 23.3576 21.4156 22.3594 21.6408 21.3847C21.8761 20.41 22.2526 19.4454 22.9854 18.6421C23.335 19.6638 23.5232 20.5579 23.7048 21.4452L24.0947 24.0667L24.2628 26.7119C24.2762 27.6193 24.2728 28.5335 24.1485 29.6023L24.1518 29.5989ZM9.05874 17.9094C8.69906 18.3732 8.16459 18.7631 7.53935 18.9345C6.91748 19.1227 6.23845 19.116 5.59641 18.9849C4.3056 18.7059 3.1358 17.943 2.28871 16.9011C1.85843 16.3835 1.50884 15.7919 1.24664 15.1534C0.994532 14.5148 0.843265 13.8291 0.789481 13.1368C0.746428 12.4399 0.803023 11.7405 0.957555 11.0597C1.12563 10.3774 1.37774 9.71525 1.7307 9.12035C2.42989 7.92047 3.46187 6.9189 4.70562 6.28367C5.32413 5.95765 5.99979 5.73918 6.69562 5.62491C7.39145 5.51736 8.10744 5.51736 8.77974 5.64507C10.1378 5.88034 11.3479 6.55255 12.2589 7.46674C13.1665 8.37421 13.785 9.56064 13.8791 10.7605C13.2001 9.77239 12.3564 9.04641 11.4252 8.54226C10.5042 8.03811 9.49574 7.78603 8.5478 7.77931C7.5965 7.76923 6.71915 8.03811 5.92584 8.50865C5.52918 8.74392 5.16614 9.03633 4.83335 9.36235C4.50596 9.69225 4.21622 10.0575 3.96945 10.4513C2.98117 12.0075 2.8736 14.0812 3.8518 15.7886C4.33249 16.6389 5.05521 17.4019 5.95945 17.8724C6.86033 18.3429 7.98979 18.4774 9.05202 17.9127L9.05874 17.9094Z" fill="#2F86DE"/>
<path d="M9.97306 7.39284C9.81031 6.89204 9.73859 6.36614 9.76129 5.84005C9.78818 5.30229 9.90583 4.76453 10.0874 4.24694C10.284 3.72627 10.546 3.23273 10.8672 2.77818C11.1933 2.32108 11.5866 1.90432 12.0236 1.53461C12.4745 1.16554 12.9704 0.854984 13.4993 0.610331C14.0438 0.364978 14.6086 0.20701 15.18 0.0994583C15.7582 -0.00137184 16.3431 -0.0148159 16.9213 0.0120722C17.4994 0.0524042 18.0642 0.159956 18.6222 0.307841C19.1692 0.472848 19.7011 0.684238 20.2122 0.939709C20.7164 1.20859 21.1937 1.5178 21.6374 1.87407C22.5249 2.59668 23.2409 3.47727 23.7653 4.44188C24.8073 6.36773 25.1367 8.57591 24.6964 10.5723C24.0308 8.64985 23.1938 6.94246 22.0408 5.59134C21.7567 5.26151 21.4548 4.94736 21.1366 4.65026C20.8105 4.36793 20.4912 4.10578 20.1416 3.87723C19.4424 3.42013 18.6827 3.0605 17.8894 2.83532C17.0994 2.60677 16.2859 2.51602 15.4859 2.56644C15.0892 2.60005 14.6892 2.66727 14.3094 2.7681C13.9329 2.88573 13.5497 3.03698 13.1833 3.22519C12.8124 3.43061 12.4593 3.66671 12.1278 3.931C11.8017 4.20997 11.4824 4.51582 11.2 4.862C10.9152 5.2205 10.6653 5.60541 10.4538 6.01147C10.249 6.45623 10.0847 6.91857 9.96298 7.39284H9.97306Z" fill="#2F86DE"/>
<path d="M23.7014 6.41142C24.5585 5.81316 25.7687 5.59469 26.9049 5.90054C28.0478 6.18959 29.0663 6.94246 29.7722 7.90034C30.4781 8.85823 30.9252 9.99089 31.1067 11.1403C31.295 12.2932 31.2479 13.4426 31.0395 14.5619C30.7975 15.8256 30.1655 16.9347 29.3386 17.8153C28.9352 18.2455 28.4108 18.669 27.873 18.9681C27.3217 19.2639 26.7435 19.4824 26.1519 19.5933C24.9754 19.8353 23.7383 19.7008 22.6996 19.2572C21.6576 18.8202 20.7701 18.1245 20.1684 17.2574C21.1433 17.6607 22.0979 17.9061 23.0257 17.9632C23.9468 18.0203 24.8073 17.8758 25.5804 17.5599C25.9603 17.3985 26.32 17.2002 26.6225 16.965C26.9418 16.7297 27.1872 16.4776 27.4494 16.1449C27.9604 15.5063 28.3234 14.7803 28.478 14.0543C28.831 12.3167 28.8007 10.5018 28.0747 8.97922C27.7183 8.21628 27.1771 7.53399 26.4376 7.05673C25.6981 6.56938 24.7569 6.34084 23.7047 6.41814L23.7014 6.41142ZM10.242 24.9037C10.4437 25.0616 10.726 25.2398 10.9815 25.4078L11.8017 25.8851C12.3661 26.191 12.9462 26.4669 13.5396 26.7119C14.141 26.9605 14.7574 27.1716 15.385 27.3438C16.017 27.5286 16.6691 27.6328 17.3347 27.7235C16.6792 27.8513 16.0036 27.9655 15.3178 27.9924C14.6354 28.0361 13.9396 28.0361 13.2471 27.9891C12.5485 27.9464 11.8528 27.8656 11.163 27.7471L10.1209 27.5387L9.04527 27.2463L10.2352 24.9003L10.242 24.9037Z" fill="#2F86DE"/>
</svg>
