<svg width="229" height="50" viewBox="0 0 229 50" fill="none" xmlns="http://www.w3.org/2000/svg">
<path d="M107.313 37.133C113.42 37.133 118.197 34.0559 118.197 26.1137V17.6725C118.197 11.1441 113.669 6.73634 107.189 6.73634C100.708 6.73634 96.1389 11.3104 96.1389 17.5477C96.1389 24.2425 100.999 28.2344 106.773 28.2344C110.678 28.2344 113.835 26.4464 115.414 23.2445V26.2385C115.414 32.3095 112.049 34.6797 107.313 34.6797C103.824 34.6797 100.958 33.4322 99.8361 30.5214H97.0113C98.4237 35.0955 102.37 37.133 107.313 37.133ZM107.189 25.6563C102.287 25.6563 98.9637 22.2881 98.9637 17.5477C98.9637 12.8074 102.287 9.31444 107.189 9.31444C112.091 9.31444 115.414 12.8074 115.414 17.5477C115.414 22.2881 112.091 25.6563 107.189 25.6563Z" fill="#F4F6FF"/>
<path d="M122.284 27.8186H125.067V15.5102C125.067 11.2272 127.393 9.31444 130.924 9.31444C134.414 9.31444 136.781 11.2272 136.781 15.5102V15.8013H139.523V15.5518C139.523 9.60552 136.034 6.73634 130.924 6.73634C125.815 6.73634 122.284 9.60552 122.284 15.5102V27.8186Z" fill="#F4F6FF"/>
<path d="M152.087 28.3592C156.075 28.3592 159.481 26.4048 160.935 22.7455V27.8186H163.511V17.6725C163.511 11.1856 158.983 6.73634 152.502 6.73634C146.022 6.73634 141.452 11.2688 141.452 17.6725C141.452 24.2425 146.313 28.3592 152.087 28.3592ZM152.502 25.781C147.6 25.781 144.277 22.2881 144.277 17.5477C144.277 12.8074 147.6 9.31444 152.502 9.31444C157.404 9.31444 160.727 12.8074 160.727 17.5477C160.727 22.2881 157.404 25.781 152.502 25.781Z" fill="#F4F6FF"/>
<path d="M175.656 28.3592C180.392 28.3592 183.632 25.6563 183.632 20.2506V19.7932H180.932V20.2506C180.932 24.0346 178.813 25.781 175.656 25.781C172.457 25.781 170.38 23.993 170.38 20.2506V9.81343H182.469V7.27691H170.38V0H167.597V20.2506C167.597 25.6563 170.879 28.3592 175.656 28.3592Z" fill="#F4F6FF"/>
<path d="M196.913 28.3592C200.901 28.3592 204.308 26.4048 205.762 22.7455V27.8186H208.337V17.6725C208.337 11.1856 203.809 6.73634 197.329 6.73634C190.849 6.73634 186.279 11.2688 186.279 17.6725C186.279 24.2425 191.139 28.3592 196.913 28.3592ZM197.329 25.781C192.427 25.781 189.104 22.2881 189.104 17.5477C189.104 12.8074 192.427 9.31444 197.329 9.31444C202.231 9.31444 205.554 12.8074 205.554 17.5477C205.554 22.2881 202.231 25.781 197.329 25.781Z" fill="#F4F6FF"/>
<path d="M220.109 28.3592C225.218 28.3592 228.5 25.6563 228.5 21.7476C228.5 17.0903 223.764 16.5914 220.566 16.1755C217.658 15.8013 214.999 15.5102 214.999 12.9737C214.999 10.853 216.869 9.27286 220.026 9.27286C223.183 9.27286 225.052 10.853 225.177 12.8905H227.918C227.835 9.39761 224.886 6.73634 220.067 6.73634C215.249 6.73634 212.216 9.35602 212.216 13.2232C212.216 17.7557 216.412 18.3378 220.109 18.7952C223.058 19.1695 225.675 19.4605 225.675 21.9555C225.675 24.1593 223.681 25.8226 220.109 25.8226C216.661 25.8226 214.667 24.2425 214.542 22.0386H211.718C211.842 25.6563 215.041 28.3592 220.109 28.3592Z" fill="#F4F6FF"/>
<path d="M170.604 48.5024C172.431 48.5024 173.604 47.5363 173.604 46.1392C173.604 44.4746 171.911 44.2962 170.768 44.1476C169.728 44.0138 168.778 43.9098 168.778 43.0031C168.778 42.2451 169.446 41.6804 170.575 41.6804C171.703 41.6804 172.371 42.2451 172.416 42.9734H173.396C173.366 41.7249 172.312 40.7737 170.59 40.7737C168.867 40.7737 167.783 41.7101 167.783 43.0923C167.783 44.7124 169.283 44.9204 170.604 45.0839C171.659 45.2177 172.594 45.3217 172.594 46.2135C172.594 47.0012 171.881 47.5957 170.604 47.5957C169.372 47.5957 168.659 47.031 168.615 46.2432H167.605C167.65 47.5363 168.793 48.5024 170.604 48.5024Z" fill="#F4F6FF"/>
<path d="M178.456 48.5024C180.772 48.5024 182.405 46.8675 182.405 44.6381C182.405 42.4086 180.772 40.7737 178.456 40.7737C176.139 40.7737 174.506 42.4086 174.506 44.6381C174.506 46.8675 176.139 48.5024 178.456 48.5024ZM178.456 47.5809C176.704 47.5809 175.516 46.3324 175.516 44.6381C175.516 42.9437 176.704 41.6952 178.456 41.6952C180.208 41.6952 181.395 42.9437 181.395 44.6381C181.395 46.3324 180.208 47.5809 178.456 47.5809Z" fill="#F4F6FF"/>
<path d="M183.843 48.3092H184.838V37.7566H183.843V48.3092Z" fill="#F4F6FF"/>
<path d="M190.2 48.5024C192.368 48.5024 193.823 47.239 193.823 44.8015V40.9669H192.828V44.8015C192.828 46.5999 191.789 47.5809 190.2 47.5809C188.611 47.5809 187.572 46.5999 187.572 44.8015V40.9669H186.577V44.8015C186.577 47.239 188.032 48.5024 190.2 48.5024Z" fill="#F4F6FF"/>
<path d="M198.157 48.5024C199.85 48.5024 201.008 47.5363 201.008 45.6041V45.4406H200.043V45.6041C200.043 46.9566 199.286 47.5809 198.157 47.5809C197.014 47.5809 196.272 46.9418 196.272 45.6041V41.8736H200.592V40.9669H196.272V38.366H195.277V45.6041C195.277 47.5363 196.45 48.5024 198.157 48.5024Z" fill="#F4F6FF"/>
<path d="M203.023 39.5401C203.454 39.5401 203.781 39.2131 203.781 38.7821C203.781 38.3511 203.454 38.0241 203.023 38.0241C202.593 38.0241 202.266 38.3511 202.266 38.7821C202.266 39.2131 202.593 39.5401 203.023 39.5401ZM202.533 48.3092H203.528V40.9669H202.533V48.3092Z" fill="#F4F6FF"/>
<path d="M208.905 48.5024C211.222 48.5024 212.855 46.8675 212.855 44.6381C212.855 42.4086 211.222 40.7737 208.905 40.7737C206.589 40.7737 204.956 42.4086 204.956 44.6381C204.956 46.8675 206.589 48.5024 208.905 48.5024ZM208.905 47.5809C207.153 47.5809 205.965 46.3324 205.965 44.6381C205.965 42.9437 207.153 41.6952 208.905 41.6952C210.657 41.6952 211.845 42.9437 211.845 44.6381C211.845 46.3324 210.657 47.5809 208.905 47.5809Z" fill="#F4F6FF"/>
<path d="M214.011 48.3092H215.006V44.4746C215.006 42.6613 216.045 41.6952 217.634 41.6952C219.222 41.6952 220.262 42.6613 220.262 44.4746V48.3092H221.256V44.4746C221.256 42.0371 219.801 40.7737 217.634 40.7737C215.466 40.7737 214.011 42.0371 214.011 44.4746V48.3092Z" fill="#F4F6FF"/>
<path d="M225.458 48.5024C227.284 48.5024 228.457 47.5363 228.457 46.1392C228.457 44.4746 226.764 44.2962 225.621 44.1476C224.581 44.0138 223.631 43.9098 223.631 43.0031C223.631 42.2451 224.299 41.6804 225.428 41.6804C226.556 41.6804 227.224 42.2451 227.269 42.9734H228.249C228.219 41.7249 227.165 40.7737 225.443 40.7737C223.72 40.7737 222.636 41.7101 222.636 43.0923C222.636 44.7124 224.136 44.9204 225.458 45.0839C226.512 45.2177 227.447 45.3217 227.447 46.2135C227.447 47.0012 226.734 47.5957 225.458 47.5957C224.225 47.5957 223.512 47.031 223.468 46.2432H222.458C222.503 47.5363 223.646 48.5024 225.458 48.5024Z" fill="#F4F6FF"/>
<path d="M53.5353 28.9291C53.5353 29.6222 53.2767 30.3068 52.7512 30.8329L40.4475 43.1489C31.3219 52.2837 16.474 52.2837 7.34838 43.1489C2.93572 38.7235 0.5 32.8368 0.5 26.5828C0.5 20.3288 2.93572 14.4421 7.35672 10.0167C11.7694 5.59124 17.6501 3.15308 23.8979 3.15308C30.1457 3.15308 36.0265 5.59124 40.4475 10.0167C41.4985 11.0688 41.4985 12.7638 40.4475 13.8159C39.3965 14.8679 37.7031 14.8679 36.6521 13.8159C33.2488 10.4091 28.711 8.53039 23.8979 8.53039C19.0849 8.53039 14.5471 10.4091 11.1438 13.8159C7.74043 17.2226 5.86359 21.7649 5.86359 26.5828C5.86359 31.4007 7.74043 35.943 11.1438 39.3497C18.1757 46.3887 29.6119 46.3887 36.6438 39.3497L48.9475 27.0337C49.9985 25.9816 51.6919 25.9816 52.7429 27.0337C53.2684 27.5597 53.527 28.2444 53.527 28.9375L53.5353 28.9291Z" fill="#F4F6FF"/>
<path d="M89.8876 26.5828C89.8876 32.8368 87.4519 38.7235 83.0309 43.1489C73.9053 52.2837 59.0574 52.2837 49.9318 43.1489C48.8808 42.0969 48.8808 40.4018 49.9318 39.3497C50.9828 38.2977 52.6762 38.2977 53.7272 39.3497C60.7591 46.3887 72.1953 46.3887 79.2272 39.3497C82.6305 35.943 84.5074 31.4007 84.5074 26.5828C84.5074 21.7649 82.6305 17.2226 79.2272 13.8159C75.8238 10.4091 71.2861 8.53039 66.473 8.53039C61.66 8.53039 57.1222 10.4091 53.7188 13.8159L41.4151 26.1319C40.3641 27.184 38.6708 27.184 37.6197 26.1319C36.5687 25.0798 36.5687 23.3848 37.6197 22.3327L49.9235 10.0167C59.0491 0.881914 73.897 0.881914 83.0226 10.0167C87.4436 14.4421 89.8793 20.3204 89.8793 26.5828H89.8876Z" fill="#F4F6FF"/>
</svg>
