<svg width="251" height="100" viewBox="0 0 251 100" fill="none" xmlns="http://www.w3.org/2000/svg" data-v-1e6c8780=""><path d="M69.6447 57.7975C73.5691 57.7975 76.6392 55.82 76.6392 50.7158V45.291C76.6392 41.0954 73.7293 38.2627 69.5646 38.2627C65.4 38.2627 62.4633 41.2023 62.4633 45.2108C62.4633 49.5133 65.5868 52.0787 69.2977 52.0787C71.8071 52.0787 73.8361 50.9296 74.8505 48.8719V50.796C74.8505 54.6976 72.6881 56.2208 69.6447 56.2208C67.4022 56.2208 65.5601 55.4191 64.8393 53.5485H63.024C63.9316 56.488 66.4678 57.7975 69.6447 57.7975ZM69.5646 50.4218C66.4144 50.4218 64.2787 48.2573 64.2787 45.2108C64.2787 42.1643 66.4144 39.9196 69.5646 39.9196C72.7148 39.9196 74.8505 42.1643 74.8505 45.2108C74.8505 48.2573 72.7148 50.4218 69.5646 50.4218Z" fill="#DB193A" data-v-1e6c8780=""></path><path d="M79.2655 51.8115H81.0542V43.9014C81.0542 41.1489 82.5492 39.9196 84.8184 39.9196C87.0609 39.9196 88.5826 41.1489 88.5826 43.9014V44.0884H90.3446V43.9281C90.3446 40.1066 88.1021 38.2627 84.8184 38.2627C81.5347 38.2627 79.2655 40.1066 79.2655 43.9014V51.8115Z" fill="#DB193A" data-v-1e6c8780=""></path><path d="M98.4188 52.1589C100.982 52.1589 103.171 50.9029 104.105 48.5512V51.8115H105.76V45.291C105.76 41.1221 102.85 38.2627 98.6858 38.2627C94.5211 38.2627 91.5845 41.1756 91.5845 45.291C91.5845 49.5133 94.708 52.1589 98.4188 52.1589ZM98.6858 50.502C95.5356 50.502 93.3999 48.2573 93.3999 45.2108C93.3999 42.1643 95.5356 39.9196 98.6858 39.9196C101.836 39.9196 103.972 42.1643 103.972 45.2108C103.972 48.2573 101.836 50.502 98.6858 50.502Z" fill="#DB193A" data-v-1e6c8780=""></path><path d="M113.566 52.1589C116.609 52.1589 118.692 50.4218 118.692 46.9478V46.6539H116.956V46.9478C116.956 49.3796 115.595 50.502 113.566 50.502C111.51 50.502 110.175 49.3529 110.175 46.9478V40.2403H117.944V38.6101H110.175V33.9336H108.387V46.9478C108.387 50.4218 110.496 52.1589 113.566 52.1589Z" fill="#DB193A" data-v-1e6c8780=""></path><path d="M127.227 52.1589C129.79 52.1589 131.979 50.9029 132.913 48.5512V51.8115H134.569V45.291C134.569 41.1221 131.659 38.2627 127.494 38.2627C123.329 38.2627 120.393 41.1756 120.393 45.291C120.393 49.5133 123.516 52.1589 127.227 52.1589ZM127.494 50.502C124.344 50.502 122.208 48.2573 122.208 45.2108C122.208 42.1643 124.344 39.9196 127.494 39.9196C130.644 39.9196 132.78 42.1643 132.78 45.2108C132.78 48.2573 130.644 50.502 127.494 50.502Z" fill="#DB193A" data-v-1e6c8780=""></path><path d="M142.134 52.1589C145.417 52.1589 147.527 50.4218 147.527 47.9099C147.527 44.9168 144.483 44.5962 142.427 44.3289C140.559 44.0884 138.85 43.9014 138.85 42.2712C138.85 40.9083 140.051 39.8929 142.08 39.8929C144.109 39.8929 145.311 40.9083 145.391 42.2178H147.153C147.099 39.973 145.204 38.2627 142.107 38.2627C139.01 38.2627 137.061 39.9463 137.061 42.4316C137.061 45.3444 139.758 45.7185 142.134 46.0125C144.029 46.253 145.711 46.4401 145.711 48.0435C145.711 49.4598 144.43 50.5287 142.134 50.5287C139.918 50.5287 138.637 49.5133 138.556 48.0969H136.741C136.821 50.4218 138.877 52.1589 142.134 52.1589Z" fill="#DB193A" data-v-1e6c8780=""></path><path d="M110.319 65.1041C111.493 65.1041 112.247 64.4832 112.247 63.5854C112.247 62.5156 111.159 62.401 110.424 62.3055C109.756 62.2195 109.146 62.1526 109.146 61.57C109.146 61.0828 109.575 60.7199 110.3 60.7199C111.025 60.7199 111.455 61.0828 111.483 61.5509H112.113C112.094 60.7485 111.417 60.1372 110.31 60.1372C109.203 60.1372 108.506 60.739 108.506 61.6273C108.506 62.6684 109.47 62.8021 110.319 62.9072C110.997 62.9932 111.598 63.06 111.598 63.6331C111.598 64.1394 111.14 64.5214 110.319 64.5214C109.527 64.5214 109.069 64.1585 109.041 63.6522H108.392C108.42 64.4832 109.155 65.1041 110.319 65.1041Z" fill="#DB193A" data-v-1e6c8780=""></path><path d="M115.365 65.1041C116.854 65.1041 117.903 64.0534 117.903 62.6207C117.903 61.1879 116.854 60.1372 115.365 60.1372C113.876 60.1372 112.827 61.1879 112.827 62.6207C112.827 64.0534 113.876 65.1041 115.365 65.1041ZM115.365 64.5119C114.239 64.5119 113.476 63.7096 113.476 62.6207C113.476 61.5318 114.239 60.7294 115.365 60.7294C116.491 60.7294 117.254 61.5318 117.254 62.6207C117.254 63.7096 116.491 64.5119 115.365 64.5119Z" fill="#DB193A" data-v-1e6c8780=""></path><path d="M118.827 64.9799H119.467V58.1982H118.827V64.9799Z" fill="#DB193A" data-v-1e6c8780=""></path><path d="M122.913 65.1041C124.306 65.1041 125.241 64.2922 125.241 62.7257V60.2614H124.601V62.7257C124.601 63.8815 123.934 64.5119 122.913 64.5119C121.891 64.5119 121.224 63.8815 121.224 62.7257V60.2614H120.584V62.7257C120.584 64.2922 121.519 65.1041 122.913 65.1041Z" fill="#DB193A" data-v-1e6c8780=""></path><path d="M128.026 65.1041C129.114 65.1041 129.859 64.4832 129.859 63.2415V63.1365H129.238V63.2415C129.238 64.1107 128.752 64.5119 128.026 64.5119C127.292 64.5119 126.815 64.1012 126.815 63.2415V60.844H129.591V60.2614H126.815V58.5898H126.175V63.2415C126.175 64.4832 126.929 65.1041 128.026 65.1041Z" fill="#DB193A" data-v-1e6c8780=""></path><path d="M131.154 59.3444C131.43 59.3444 131.64 59.1343 131.64 58.8573C131.64 58.5803 131.43 58.3702 131.154 58.3702C130.877 58.3702 130.667 58.5803 130.667 58.8573C130.667 59.1343 130.877 59.3444 131.154 59.3444ZM130.839 64.9799H131.478V60.2614H130.839V64.9799Z" fill="#DB193A" data-v-1e6c8780=""></path><path d="M134.934 65.1041C136.422 65.1041 137.472 64.0534 137.472 62.6207C137.472 61.1879 136.422 60.1372 134.934 60.1372C133.445 60.1372 132.396 61.1879 132.396 62.6207C132.396 64.0534 133.445 65.1041 134.934 65.1041ZM134.934 64.5119C133.808 64.5119 133.044 63.7096 133.044 62.6207C133.044 61.5318 133.808 60.7294 134.934 60.7294C136.06 60.7294 136.823 61.5318 136.823 62.6207C136.823 63.7096 136.06 64.5119 134.934 64.5119Z" fill="#DB193A" data-v-1e6c8780=""></path><path d="M138.215 64.9799H138.854V62.5156C138.854 61.3503 139.522 60.7294 140.543 60.7294C141.564 60.7294 142.232 61.3503 142.232 62.5156V64.9799H142.871V62.5156C142.871 60.9491 141.936 60.1372 140.543 60.1372C139.15 60.1372 138.215 60.9491 138.215 62.5156V64.9799Z" fill="#DB193A" data-v-1e6c8780=""></path><path d="M145.571 65.1041C146.745 65.1041 147.499 64.4832 147.499 63.5854C147.499 62.5156 146.411 62.401 145.676 62.3055C145.008 62.2195 144.398 62.1526 144.398 61.57C144.398 61.0828 144.827 60.7199 145.552 60.7199C146.277 60.7199 146.707 61.0828 146.735 61.5509H147.365C147.346 60.7485 146.669 60.1372 145.562 60.1372C144.455 60.1372 143.758 60.739 143.758 61.6273C143.758 62.6684 144.722 62.8021 145.571 62.9072C146.249 62.9932 146.85 63.06 146.85 63.6331C146.85 64.1394 146.392 64.5214 145.571 64.5214C144.779 64.5214 144.321 64.1585 144.293 63.6522H143.644C143.672 64.4832 144.407 65.1041 145.571 65.1041Z" fill="#DB193A" data-v-1e6c8780=""></path><path d="M35.0837 52.5252C35.0837 52.9705 34.9175 53.4106 34.5798 53.7486L26.6727 61.6637C20.808 67.5342 11.2658 67.5342 5.40118 61.6637C2.56534 58.8196 1 55.0365 1 51.0173C1 46.998 2.56534 43.2149 5.40654 40.3709C8.24238 37.5268 12.0217 35.9599 16.0369 35.9599C20.0521 35.9599 23.8315 37.5268 26.6727 40.3709C27.3481 41.047 27.3481 42.1363 26.6727 42.8125C25.9972 43.4886 24.909 43.4886 24.2335 42.8125C22.0463 40.6231 19.1301 39.4157 16.0369 39.4157C12.9438 39.4157 10.0275 40.6231 7.84033 42.8125C5.65314 45.0018 4.44697 47.921 4.44697 51.0173C4.44697 54.1135 5.65314 57.0327 7.84033 59.2221C12.3594 63.7457 19.709 63.7457 24.2282 59.2221L32.1353 51.307C32.8107 50.6309 33.899 50.6309 34.5744 51.307C34.9121 51.6451 35.0783 52.0851 35.0783 52.5305L35.0837 52.5252Z" fill="#DB193A" data-v-1e6c8780=""></path><path d="M58.4459 51.0173C58.4459 55.0365 56.8805 58.8196 54.0393 61.6637C48.1747 67.5342 38.6325 67.5342 32.7678 61.6637C32.0924 60.9875 32.0924 59.8982 32.7678 59.2221C33.4433 58.5459 34.5315 58.5459 35.207 59.2221C39.7261 63.7457 47.0757 63.7457 51.5948 59.2221C53.782 57.0327 54.9882 54.1135 54.9882 51.0173C54.9882 47.921 53.782 45.0018 51.5948 42.8125C49.4076 40.6231 46.4914 39.4157 43.3982 39.4157C40.3051 39.4157 37.3888 40.6231 35.2016 42.8125L27.2945 50.7275C26.6191 51.4036 25.5308 51.4036 24.8554 50.7275C24.1799 50.0514 24.1799 48.962 24.8554 48.2859L32.7625 40.3709C38.6271 34.5003 48.1693 34.5003 54.034 40.3709C56.8752 43.2149 58.4405 46.9927 58.4405 51.0173H58.4459Z" fill="#DB193A" data-v-1e6c8780=""></path><path d="M159.115 17.4385V82.5615" stroke="#DB193A" stroke-width="0.75" data-v-1e6c8780=""></path><path d="M174.466 54.5832C172.418 54.5832 171.048 53.1624 171.048 51.0248C171.048 48.9896 172.469 47.5048 174.44 47.5048C176.603 47.5048 178.037 49.2584 177.717 51.4856H172.866C172.981 52.5992 173.519 53.2136 174.427 53.2136C175.208 53.2136 175.733 52.8296 175.938 52.1512H177.704C177.32 53.7 176.13 54.5832 174.466 54.5832ZM174.402 48.8104C173.57 48.8104 173.045 49.348 172.891 50.3592H175.835C175.784 49.412 175.247 48.8104 174.402 48.8104ZM182.603 51.7416H178.699V50.1544H182.603V51.7416ZM186.851 54.596C184.88 54.596 183.523 53.1368 183.523 51.0504C183.523 49.0024 184.931 47.5048 186.851 47.5048C188.63 47.5048 189.949 48.708 190.166 50.5512H188.298C188.208 49.6424 187.658 49.0792 186.851 49.0792C185.93 49.0792 185.341 49.8344 185.341 51.0504C185.341 52.2792 185.917 53.0216 186.851 53.0216C187.67 53.0216 188.195 52.484 188.298 51.5496H190.166C189.962 53.4312 188.682 54.596 186.851 54.596ZM194.305 54.596C192.321 54.596 190.836 53.0344 190.836 51.0504C190.836 49.0536 192.321 47.5048 194.305 47.5048C196.289 47.5048 197.773 49.0536 197.773 51.0504C197.773 53.0344 196.289 54.596 194.305 54.596ZM194.305 53.0216C195.188 53.0216 195.943 52.3176 195.943 51.0504C195.943 49.7832 195.188 49.092 194.305 49.092C193.421 49.092 192.666 49.7832 192.666 51.0504C192.666 52.3176 193.421 53.0216 194.305 53.0216ZM200.688 54.468H198.909V47.6328H200.547V48.6056C201.046 47.9144 201.686 47.5048 202.595 47.5048C203.53 47.5048 204.246 47.94 204.592 48.7208C205.13 47.9656 205.821 47.5048 206.845 47.5048C208.227 47.5048 209.162 48.4136 209.162 50.052V54.468H207.395V50.6152C207.395 49.6552 206.986 49.0792 206.205 49.0792C205.501 49.0792 204.925 49.6296 204.925 50.6536V54.468H203.158V50.6152C203.158 49.6552 202.749 49.0792 201.968 49.0792C201.251 49.0792 200.688 49.6296 200.688 50.6536V54.468ZM212.463 54.468H210.684V47.6328H212.322V48.6056C212.821 47.9144 213.461 47.5048 214.37 47.5048C215.305 47.5048 216.021 47.94 216.367 48.7208C216.905 47.9656 217.596 47.5048 218.62 47.5048C220.002 47.5048 220.937 48.4136 220.937 50.052V54.468H219.17V50.6152C219.17 49.6552 218.761 49.0792 217.98 49.0792C217.276 49.0792 216.7 49.6296 216.7 50.6536V54.468H214.933V50.6152C214.933 49.6552 214.524 49.0792 213.743 49.0792C213.026 49.0792 212.463 49.6296 212.463 50.6536V54.468ZM225.428 54.5832C223.38 54.5832 222.011 53.1624 222.011 51.0248C222.011 48.9896 223.432 47.5048 225.403 47.5048C227.566 47.5048 229 49.2584 228.68 51.4856H223.828C223.944 52.5992 224.481 53.2136 225.39 53.2136C226.171 53.2136 226.696 52.8296 226.9 52.1512H228.667C228.283 53.7 227.092 54.5832 225.428 54.5832ZM225.364 48.8104C224.532 48.8104 224.008 49.348 223.854 50.3592H226.798C226.747 49.412 226.209 48.8104 225.364 48.8104ZM231.65 51.1528V54.468H229.871V47.6328H231.51V48.9512C232.009 48.0808 233.071 47.556 234.172 47.556V49.3992C232.662 49.284 231.65 49.6424 231.65 51.1528ZM237.926 54.596C235.955 54.596 234.598 53.1368 234.598 51.0504C234.598 49.0024 236.006 47.5048 237.926 47.5048C239.705 47.5048 241.024 48.708 241.241 50.5512H239.373C239.283 49.6424 238.733 49.0792 237.926 49.0792C237.005 49.0792 236.416 49.8344 236.416 51.0504C236.416 52.2792 236.992 53.0216 237.926 53.0216C238.745 53.0216 239.27 52.484 239.373 51.5496H241.241C241.037 53.4312 239.757 54.596 237.926 54.596ZM245.328 54.5832C243.28 54.5832 241.911 53.1624 241.911 51.0248C241.911 48.9896 243.332 47.5048 245.303 47.5048C247.466 47.5048 248.9 49.2584 248.58 51.4856H243.728C243.844 52.5992 244.381 53.2136 245.29 53.2136C246.071 53.2136 246.596 52.8296 246.8 52.1512H248.567C248.183 53.7 246.992 54.5832 245.328 54.5832ZM245.264 48.8104C244.432 48.8104 243.908 49.348 243.754 50.3592H246.698C246.647 49.412 246.109 48.8104 245.264 48.8104Z" fill="#DB193A" data-v-1e6c8780=""></path></svg>
