<svg width="180" height="37" viewBox="0 0 180 37" fill="none" xmlns="http://www.w3.org/2000/svg">
<g clip-path="url(#clip0_34_625)">
<path d="M166.331 30.1822H167.899V31.7483H166.331V30.1822ZM173.945 23.3037V31.756H172.366V23.3775H170.563V31.7522H168.996V21.8114H172.444C172.842 21.8124 173.223 21.9696 173.505 22.2485C173.786 22.5274 173.944 22.9054 173.945 23.2998V23.3037ZM180 30.1822V31.7483H176.551C175.728 31.7483 175.05 31.0799 175.05 30.2599V21.8114H176.618V30.186H179.996L180 30.1822ZM116.523 21.4772C117.358 22.029 117.867 22.9617 117.867 23.941V28.9697C117.867 30.5047 116.601 31.7599 115.053 31.7599H108.587V28.8181H114.897V23.941L109.9 20.6455C109.494 20.3796 109.161 20.0176 108.931 19.5922C108.701 19.1669 108.582 18.6915 108.583 18.2089V15.9045C108.583 14.3694 109.826 13.1142 111.397 13.1142H117.863V16.056H111.526V18.2167L116.515 21.4811L116.523 21.4772ZM129.251 16.0482H126.077V31.7599H123.11V16.0482H119.936V13.1064H129.239V16.0482H129.251ZM140.604 15.8928V28.9658C140.604 30.5008 139.338 31.756 137.79 31.756H134.138C133.768 31.7566 133.402 31.6847 133.061 31.5447C132.719 31.4046 132.409 31.1991 132.147 30.9399C131.886 30.6807 131.679 30.3729 131.537 30.0342C131.396 29.6954 131.324 29.3324 131.324 28.9658V15.8967C131.324 14.3616 132.567 13.1064 134.138 13.1064H137.79C138.536 13.1095 139.25 13.4045 139.777 13.9271C140.304 14.4497 140.601 15.1576 140.604 15.8967V15.8928ZM137.638 16.0482H134.267V28.8181H137.638V16.0482ZM145.62 31.756H142.681V13.1025H149.147C150.695 13.1025 151.961 14.3578 151.961 15.8928V18.2323C151.961 19.1882 151.479 20.0976 150.668 20.6222L149.676 21.2829L150.664 21.9124C151.061 22.1741 151.388 22.5292 151.613 22.9462C151.839 23.3633 151.957 23.8292 151.957 24.3024V31.7638H148.99V24.3413L147.011 23.0355L145.616 23.9138V31.756H145.62ZM145.62 20.393L148.99 18.205V16.0444H145.62V20.3968V20.393ZM156.977 16.0405V18.8579H160.151V21.7997H156.977V28.8142H163.314V31.756H156.848C156.478 31.7566 156.112 31.6847 155.77 31.5447C155.429 31.4046 155.118 31.1991 154.857 30.9399C154.595 30.6807 154.388 30.3729 154.247 30.0342C154.106 29.6954 154.033 29.3324 154.034 28.9658V15.8967C154.034 14.3616 155.276 13.1064 156.848 13.1064H163.314V16.0482H156.981L156.977 16.0405Z" fill="#F5751A"/>
<path d="M27.2523 34.2237C26.6136 34.6512 25.9435 35.0398 25.2342 35.3623C24.5288 35.7121 23.7959 35.9724 23.0396 36.2095C21.5179 36.6691 19.9424 36.9304 18.3527 36.9867C16.7538 37.045 15.1471 36.909 13.5717 36.5981C12.7819 36.4376 12.001 36.2365 11.2322 35.9958C10.8482 35.8792 10.468 35.7315 10.084 35.5838L9.51185 35.3507C9.31591 35.2652 9.14348 35.1952 8.90443 35.067L7.83459 34.5229L8.31269 32.8713C8.35188 32.7392 8.38323 32.5915 8.4185 32.4516C8.4812 32.164 8.54782 31.8764 8.59485 31.5772C8.70264 30.9792 8.79021 30.3778 8.85741 29.774C8.98673 28.5538 9.05335 27.318 9.07294 26.0705L9.07686 25.1379L9.05727 24.1974C9.05727 23.5679 9.00632 22.9422 8.97889 22.3126C8.95538 21.6831 8.877 21.0535 8.84565 20.4201L8.59876 17.8475L9.01024 17.5599C9.10458 17.4934 9.20271 17.4325 9.30415 17.3772C9.39428 17.3267 9.4805 17.2801 9.57063 17.2373C9.74698 17.1518 9.92333 17.0702 10.1036 17.0042C10.4609 16.8702 10.8276 16.7624 11.2009 16.6816C11.9454 16.5262 12.7018 16.4873 13.4346 16.5845C14.1674 16.6738 14.8689 16.8837 15.5037 17.1868C16.1464 17.4822 16.7264 17.8747 17.2398 18.3138C16.6157 18.0774 15.97 17.9017 15.3117 17.7892C14.669 17.6804 14.0302 17.6726 13.415 17.7386C12.7997 17.8047 12.2119 17.9718 11.6672 18.1972C11.3929 18.3138 11.1303 18.4498 10.8834 18.6014C10.7625 18.6772 10.6436 18.7563 10.5268 18.8384C10.472 18.8773 10.4171 18.9162 10.3701 18.9628C10.323 19.0016 10.2525 19.0561 10.2525 19.0716L10.5974 18.1156C10.7786 18.7554 10.9497 19.398 11.1107 20.0431C11.2557 20.6921 11.4007 21.345 11.5144 22.0056C11.7417 23.3269 11.9062 24.6599 11.9729 26.0084C12.0317 27.3569 12.0277 28.717 11.8945 30.0772C11.824 30.7572 11.7456 31.4373 11.6045 32.1252C11.5418 32.4671 11.4634 32.8091 11.3772 33.155C11.3302 33.3299 11.291 33.5047 11.2361 33.6796C11.1813 33.8662 11.1382 34.0138 11.048 34.2625L10.3544 32.4244C10.4902 32.5007 10.6287 32.5719 10.7698 32.6381C10.9265 32.7159 11.0833 32.7858 11.24 32.8558C11.56 32.9972 11.8841 33.1294 12.2119 33.2521C12.8664 33.5125 13.5443 33.734 14.2262 33.9322C15.5978 34.3364 17.0007 34.6084 18.4311 34.7872C19.8778 34.9481 21.3358 34.9846 22.7888 34.896C24.278 34.8027 25.7593 34.5657 27.2641 34.2276L27.2523 34.2237Z" fill="#2F86DE"/>
<path d="M27.2523 34.2238C26.2217 33.4932 25.5555 32.4866 25.0578 31.449C24.5679 30.3998 24.2662 29.2845 24.1408 28.1458C24.0154 27.0072 24.0624 25.853 24.325 24.726C24.5993 23.599 25.0382 22.4837 25.8925 21.5549C26.3001 22.7363 26.5195 23.77 26.7311 24.796L27.1857 27.8272L27.3816 30.8856C27.3973 31.9348 27.3934 32.9918 27.2484 34.2276L27.2523 34.2238ZM9.65683 20.7077C9.23751 21.244 8.61442 21.6948 7.88552 21.893C7.16054 22.1106 6.36894 22.1029 5.62044 21.9513C4.11561 21.6288 2.75186 20.7466 1.76432 19.5419C1.26271 18.9434 0.855156 18.2595 0.549488 17.5211C0.255576 16.7827 0.0792294 15.99 0.0165283 15.1894C-0.0336631 14.3837 0.0323153 13.575 0.212469 12.7878C0.40841 11.9989 0.702322 11.2333 1.1138 10.5455C1.92891 9.15811 3.13199 8.00004 4.58195 7.26556C5.30302 6.8886 6.0907 6.636 6.90189 6.50387C7.71309 6.37951 8.5478 6.37951 9.33156 6.52719C10.9148 6.79922 12.3255 7.57645 13.3875 8.63348C14.4456 9.68274 15.1667 11.0545 15.2764 12.4419C14.4848 11.2994 13.5012 10.46 12.4157 9.87705C11.3419 9.29412 10.1663 9.00266 9.06116 8.99489C7.95214 8.98323 6.92933 9.29412 6.00448 9.83818C5.54206 10.1102 5.11883 10.4483 4.73087 10.8253C4.3492 11.2067 4.01142 11.629 3.72373 12.0844C2.5716 13.8837 2.4462 16.2814 3.58657 18.2556C4.14696 19.2388 4.98951 20.1209 6.04367 20.665C7.09392 21.209 8.41064 21.3645 9.64899 20.7116L9.65683 20.7077Z" fill="#2F86DE"/>
<path d="M10.7227 8.54794C10.533 7.96889 10.4494 7.36082 10.4758 6.75254C10.5072 6.13075 10.6444 5.50897 10.856 4.9105C11.0852 4.30849 11.3907 3.73783 11.7651 3.21226C12.1453 2.68374 12.6038 2.20186 13.1132 1.77438C13.6389 1.34765 14.217 0.988571 14.8336 0.705692C15.4684 0.422004 16.1268 0.239355 16.793 0.114998C17.467 -0.00158618 18.1489 -0.0171308 18.8229 0.0139584C19.497 0.0605922 20.1553 0.184949 20.8059 0.355939C21.4436 0.546728 22.0637 0.791147 22.6595 1.08653C23.2473 1.39743 23.8038 1.75495 24.321 2.16688C25.3556 3.00241 26.1903 4.02058 26.8016 5.1359C28.0165 7.36266 28.4005 9.91586 27.8872 12.2242C27.1112 10.0014 26.1355 8.02719 24.7913 6.46496C24.46 6.0836 24.1081 5.72036 23.7371 5.37684C23.357 5.0504 22.9847 4.74728 22.5772 4.48303C21.762 3.95451 20.8764 3.53869 19.9516 3.27832C19.0306 3.01406 18.0823 2.90914 17.1496 2.96743C16.6872 3.00629 16.2208 3.08401 15.778 3.2006C15.3391 3.33661 14.8924 3.51149 14.4652 3.72911C14.0328 3.96663 13.6212 4.23961 13.2347 4.54521C12.8546 4.86776 12.4823 5.22139 12.1531 5.62167C11.8211 6.03618 11.5297 6.48122 11.2831 6.95073C11.0444 7.46499 10.8529 7.99956 10.711 8.54794H10.7227Z" fill="#2F86DE"/>
<path d="M26.7272 7.41316C27.7265 6.72143 29.1372 6.46883 30.4618 6.82247C31.7942 7.15667 32.9816 8.02717 33.8046 9.13472C34.6275 10.2423 35.1487 11.5519 35.3603 12.881C35.5798 14.2139 35.5249 15.543 35.2819 16.8371C34.9998 18.2983 34.2631 19.5807 33.299 20.5989C32.8288 21.0963 32.2174 21.5859 31.5904 21.9318C30.9477 22.2738 30.2737 22.5264 29.584 22.6546C28.2124 22.9344 26.7703 22.779 25.5594 22.266C24.3445 21.7608 23.31 20.9564 22.6085 19.9538C23.7449 20.4201 24.8579 20.7038 25.9395 20.7698C27.0132 20.8359 28.0165 20.6688 28.9178 20.3035C29.3606 20.117 29.7799 19.8877 30.1326 19.6157C30.5049 19.3436 30.791 19.0522 31.0967 18.6674C31.6923 17.9291 32.1155 17.0897 32.2958 16.2503C32.7073 14.2411 32.672 12.1426 31.8256 10.3822C31.4102 9.50002 30.7792 8.71113 29.9171 8.1593C29.0549 7.59581 27.9577 7.33155 26.7311 7.42093L26.7272 7.41316ZM11.0362 28.7947C11.2713 28.9774 11.6005 29.1834 11.8984 29.3777L12.8545 29.9295C13.5125 30.2832 14.1888 30.6023 14.8806 30.8855C15.5818 31.173 16.3003 31.417 17.032 31.6161C17.7687 31.8298 18.529 31.9503 19.3049 32.0552C18.5408 32.2029 17.7531 32.335 16.9536 32.3661C16.1581 32.4166 15.3469 32.4166 14.5396 32.3622C13.7252 32.3129 12.9141 32.2195 12.11 32.0824L10.8951 31.8415L9.64111 31.5034L11.0284 28.7908L11.0362 28.7947ZM55.0563 14.144C55.0171 14.1828 55.0093 14.2411 55.0289 14.315C55.0485 14.3927 55.0877 14.4393 55.1465 14.4587L54.974 15.4808L54.7115 16.8332L54.4058 18.1545L54.1315 19.0871C53.3399 18.854 52.4973 18.6985 51.6117 18.5975C50.7221 18.5003 49.9031 18.547 49.1428 18.7257C48.3904 18.9084 47.7712 19.2776 47.2735 19.8333C46.7759 20.389 46.5368 21.1934 46.5368 22.2427C46.5368 22.915 46.67 23.4707 46.9444 23.9137C47.2187 24.3529 47.5714 24.6987 48.0181 24.9475C48.4609 25.1962 48.9586 25.3594 49.5073 25.4371C50.0656 25.5144 50.631 25.5275 51.1924 25.476C51.7485 25.4319 52.2979 25.3263 52.8304 25.1612C53.3516 24.998 53.8101 24.8037 54.1942 24.5705C54.3117 24.7803 54.4215 25.064 54.5273 25.4177L54.8329 26.5835L55.0955 27.9048L55.2679 29.2261C53.9551 30.528 52.4934 31.344 50.8906 31.6744C49.2878 32.0047 47.6458 31.8065 45.9647 31.0992C45.0163 30.8272 44.2208 30.4386 43.5742 29.9217C42.9276 29.4049 42.3985 28.8025 41.9949 28.1108C41.5913 27.419 41.3013 26.6535 41.1249 25.8102C40.9525 24.9669 40.8624 24.0847 40.8624 23.1676C40.8622 22.0893 40.9539 21.0129 41.1367 19.9499C41.3209 18.8773 41.6383 17.8902 42.0929 16.9886C42.5474 16.087 43.1509 15.3176 43.919 14.6569C44.6871 13.9963 45.6316 13.5688 46.7719 13.3356C48.1827 13.0481 49.5856 12.9781 50.9886 13.1219C52.3798 13.2618 53.7396 13.6038 55.0524 14.1401L55.0563 14.144ZM63.2584 13.0248L63.2427 14.1012L63.2271 15.3953L63.2427 17.0663L63.3446 19.2348H63.3721H63.2545L63.3995 19.3514C63.7374 19.2943 64.0795 19.2657 64.4223 19.2659H65.4216L66.3856 19.2504C66.6991 19.2426 67.0244 19.196 67.3497 19.1221L67.2634 16.1764C67.2047 15.2671 67.2243 14.2955 67.3222 13.2618C68.0786 13.052 68.9877 12.9509 70.0458 12.9509C71.1039 12.9509 72.162 13.1141 73.2044 13.4406L73.4513 22.6663C73.5012 25.6858 73.4384 28.7061 73.2631 31.721L70.1673 31.9658L68.5292 32.0358C68.5292 32.0358 67.8787 32.0125 67.7063 31.9658L67.0401 31.7793L67.0244 29.9917L66.9695 26.7118L66.9539 24.963L65.1434 24.8464C64.6104 24.827 64.0187 24.8658 63.3603 24.963L63.2741 26.3853L63.2153 27.8349L63.1761 29.5176L63.1369 31.6005L59.9352 31.756L58.0816 31.8143H57.2273C57.2273 31.8143 57.0157 31.7754 56.9922 31.7443L56.9648 26.397L56.9922 24.9202L57.051 22.3748L57.1294 19.3281L57.2313 16.3668L57.3175 14.1129L57.3763 13.1219L63.278 13.0442L63.2584 13.0248ZM82.9701 13.1413L86.3481 13.2113L89.7261 13.3395L89.7653 14.9056L89.7261 16.4601C89.6869 16.9498 89.6203 17.3772 89.5223 17.7425C89.4244 18.1078 89.2715 18.3371 89.0599 18.4304L87.2964 18.4887C86.7738 18.4893 86.2512 18.4802 85.7289 18.4615L84.0634 18.4032L81.9629 18.3177L82.0491 18.4343L82.0648 19.2115C82.0734 19.4641 82.039 19.7164 81.9629 19.9576C82.5429 20.0354 83.0602 20.0742 83.5148 20.0742H84.7884L85.9758 20.1014C86.3677 20.1209 86.8105 20.1869 87.2964 20.3035C87.414 20.731 87.4728 21.0807 87.4846 21.3683C87.4924 21.6559 87.4806 21.9396 87.4454 22.2155L87.316 23.0782C87.2622 23.4345 87.236 23.7944 87.2377 24.1547C87.0652 24.2518 86.7674 24.3101 86.3559 24.3257L83.4874 24.3801C82.9936 24.3995 82.6017 24.4384 82.3117 24.4967C82.2529 25.0524 82.2921 25.5071 82.4293 25.8762C82.6017 25.9734 83.0171 26.0395 83.6755 26.0783L85.819 26.1366L88.0214 26.1094L89.4126 26.0511L89.585 28.1768L89.6634 29.6536L89.6477 30.6873C89.6327 30.9366 89.5933 31.1839 89.5302 31.4257L89.295 31.5694L86.7596 31.6394H84.5141L82.3822 31.6122L80.1955 31.5966L79.2393 31.5811L77.7188 31.5422L76.3002 31.4412C75.8848 31.3946 75.6732 31.3246 75.6497 31.2275C75.5713 30.7689 75.5322 30.1976 75.5322 29.5176L75.5909 27.4346L75.7085 25.3944L75.7673 23.8127C75.7656 22.1018 75.7173 20.3913 75.6223 18.683C75.5273 16.9747 75.4789 15.2642 75.4773 13.5533L75.5047 13.4095L79.2433 13.254L82.9661 13.1569L82.9701 13.1413ZM104.927 20.5483L104.943 21.2945L104.915 22.266L104.857 23.257L104.817 24.0614C104.81 24.2946 104.814 24.4267 104.833 24.4656C104.853 24.5239 104.649 24.555 104.226 24.5666L102.646 24.5822C102.019 24.5822 101.345 24.5744 100.632 24.555L98.7512 24.4967L98.8099 26.0628L98.8374 27.5123L98.7982 30.1432L98.6414 31.7249L95.4672 31.7093L93.5391 31.7482L92.4419 31.8065C92.2195 31.8258 91.9956 31.8167 91.7757 31.7793C91.6816 24.7065 91.7521 20.2064 91.8148 18.2555L92.0029 12.982L92.3165 12.8654L103.65 13.0092C103.752 13.0106 103.854 13.0158 103.955 13.0248L104.406 13.0636C104.548 13.079 104.685 13.1185 104.814 13.1802C104.931 13.2385 104.998 13.3046 105.017 13.3823C105.102 13.8071 105.179 14.2333 105.249 14.6608C105.325 15.1269 105.379 15.5964 105.409 16.0676C105.437 16.5339 105.429 16.9886 105.382 17.42C105.335 17.8513 105.213 18.2361 105.017 18.5858L99.0451 18.6441C98.9863 19.1416 98.9432 18.4498 98.9157 18.9162C98.8893 19.3571 98.8553 19.7976 98.8139 20.2374H104.841C104.896 20.2413 104.931 20.3424 104.939 20.5406L104.927 20.5483Z" fill="#2F86DE"/>
</g>
<defs>
<clipPath id="clip0_34_625">
<rect width="180" height="37" fill="white"/>
</clipPath>
</defs>
</svg>
