<svg width="40" height="40" viewBox="0 0 40 40" fill="none" xmlns="http://www.w3.org/2000/svg">
<rect width="40" height="40" rx="20" fill="#E8761C" fill-opacity="0.1"/>
<path d="M27.4375 13.2C28.0243 13.2 28.5 13.6756 28.5 14.2625C28.5 14.8493 28.0243 15.325 27.4375 15.325H12.5625C11.9757 15.325 11.5 14.8493 11.5 14.2625C11.5 13.6756 11.9757 13.2 12.5625 13.2H27.4375ZM27.4375 18.9375C28.0243 18.9375 28.5 19.4131 28.5 20C28.5 20.5868 28.0243 21.0625 27.4375 21.0625H12.5625C11.9757 21.0625 11.5 20.5868 11.5 20C11.5 19.4131 11.9757 18.9375 12.5625 18.9375H27.4375ZM27.4375 24.675C28.0243 24.675 28.5 25.1506 28.5 25.7375C28.5 26.3243 28.0243 26.8 27.4375 26.8H12.5625C11.9757 26.8 11.5 26.3243 11.5 25.7375C11.5 25.1506 11.9757 24.675 12.5625 24.675H27.4375Z" fill="#E8761C"/>
</svg>
