<svg width="32" height="32" viewBox="0 0 32 32" fill="none" xmlns="http://www.w3.org/2000/svg">
<path d="M18.8641 16.9557C18.8641 17.2164 18.7799 17.4771 18.6114 17.6509L14.3152 21.9962C11.1141 25.2986 5.97554 25.2986 2.8587 21.9962C1.34239 20.4319 0.5 18.3462 0.5 16.0866C0.5 13.827 1.34239 11.7413 2.8587 10.177C4.375 8.61269 6.39674 7.74363 8.58696 7.74363C10.7772 7.74363 12.7989 8.61269 14.3152 10.177C14.6522 10.5246 14.6522 11.133 14.3152 11.5675C13.9783 11.9151 13.3886 11.9151 12.9674 11.5675C11.788 10.3508 10.1875 9.65556 8.50272 9.65556C6.81793 9.65556 5.30163 10.3508 4.03804 11.5675C2.77446 12.7842 2.35326 14.3485 2.35326 16.0866C2.35326 17.8247 3.02717 19.389 4.20652 20.6926C6.64946 23.2129 10.6087 23.2129 13.0516 20.6926L17.3478 16.2604C17.6848 15.9128 18.2745 15.9128 18.6957 16.2604C18.7799 16.4342 18.8641 16.6949 18.8641 16.9557Z" fill="#DB193A"/>
<path d="M31.5 16.0866C31.5 18.3462 30.6576 20.4319 29.1413 21.9962C25.9402 25.2986 20.8016 25.2986 17.6848 21.9962C17.3478 21.6486 17.3478 21.0402 17.6848 20.6057C18.0217 20.1712 18.6114 20.2581 19.0326 20.6057C21.4755 23.126 25.4348 23.126 27.8777 20.6057C29.0571 19.389 29.731 17.7378 29.731 15.9997C29.731 14.2616 29.0571 12.6973 27.8777 11.3937C26.6984 10.177 25.0978 9.48175 23.413 9.48175C21.7283 9.48175 20.212 10.177 18.9484 11.3937L14.6522 15.8259C14.3152 16.1735 13.7255 16.1735 13.3043 15.8259C12.9674 15.4783 12.9674 14.8699 13.3043 14.4354L17.6005 10.0032C20.8016 6.70076 25.9402 6.70076 29.0571 10.0032C30.6576 11.7413 31.5 13.8271 31.5 16.0866Z" fill="#DB193A"/>
</svg>
